<svg width="512" height="512" viewBox="0 0 512 512" fill="none" xmlns="http://www.w3.org/2000/svg">
<path d="M193.455 354.387C205.974 354.387 216.122 344.239 216.122 331.721C216.122 319.202 205.974 309.054 193.455 309.054C180.936 309.054 170.788 319.202 170.788 331.721C170.788 344.239 180.936 354.387 193.455 354.387Z" fill="#A6D3FF"/>
<path d="M288.401 379.295C300.313 379.295 309.97 369.638 309.97 357.727C309.97 345.815 300.313 336.158 288.401 336.158C276.489 336.158 266.833 345.815 266.833 357.727C266.833 369.638 276.489 379.295 288.401 379.295Z" fill="#666CDD"/>
<path d="M221.528 254.451C233.44 254.451 243.097 244.795 243.097 232.883C243.097 220.971 233.44 211.314 221.528 211.314C209.616 211.314 199.96 220.971 199.96 232.883C199.96 244.795 209.616 254.451 221.528 254.451Z" fill="#666CDD"/>
<path d="M304.729 300.301C319.742 300.301 331.912 288.131 331.912 273.119C331.912 258.106 319.742 245.936 304.729 245.936C289.716 245.936 277.546 258.106 277.546 273.119C277.546 288.131 289.716 300.301 304.729 300.301Z" fill="#A9B3FF"/>
<path d="M203.031 462.71C219.114 462.71 232.151 449.672 232.151 433.59C232.151 417.507 219.114 404.47 203.031 404.47C186.949 404.47 173.911 417.507 173.911 433.59C173.911 449.672 186.949 462.71 203.031 462.71Z" fill="#B0CDFF"/>
<path d="M64.0061 229.776L178.412 277.165C179.415 277.581 180.49 277.794 181.576 277.794C182.662 277.794 183.737 277.58 184.741 277.165C185.744 276.749 186.656 276.14 187.423 275.372C188.191 274.604 188.8 273.692 189.216 272.689L254.804 114.346C255.22 113.342 255.434 112.267 255.434 111.181C255.434 110.095 255.22 109.02 254.804 108.016C254.388 107.013 253.779 106.101 253.011 105.334C252.243 104.566 251.331 103.957 250.328 103.541L135.923 56.1527C124.522 51.4305 112.304 49 99.9639 49C87.6243 49 75.4056 51.4305 64.0053 56.1527C52.605 60.8749 42.2465 67.7963 33.5211 76.5218C24.7958 85.2473 17.8745 95.6059 13.1525 107.006C8.43038 118.407 5.99996 130.625 6 142.965C6.00004 155.304 8.43054 167.523 13.1527 178.923C17.8749 190.324 24.7963 200.682 33.5218 209.408C42.2472 218.133 52.6058 225.054 64.0061 229.776Z" fill="#B0C1FF"/>
<path opacity="0.1" d="M189.217 272.691L205.37 233.694C70.2466 207.977 24.877 128.121 35.4515 74.6543C25.813 83.7388 18.2128 94.7661 13.1537 107.007C8.43146 118.407 6.00098 130.626 6.00098 142.965C6.00098 155.305 8.43147 167.524 13.1537 178.924C17.8759 190.324 24.7973 200.683 33.5228 209.408C42.2483 218.134 52.6069 225.055 64.0073 229.777L178.413 277.165C179.416 277.581 180.491 277.795 181.577 277.795C182.663 277.795 183.738 277.581 184.742 277.166C185.745 276.75 186.657 276.141 187.424 275.374C188.192 274.606 188.801 273.694 189.217 272.691Z" fill="black"/>
<path d="M447.034 229.776L332.629 277.165C331.625 277.581 330.55 277.794 329.464 277.794C328.378 277.794 327.303 277.58 326.299 277.165C325.296 276.749 324.384 276.14 323.617 275.372C322.849 274.604 322.24 273.692 321.824 272.689L256.236 114.346C255.82 113.342 255.606 112.267 255.606 111.181C255.606 110.095 255.82 109.02 256.236 108.016C256.652 107.013 257.261 106.101 258.029 105.334C258.797 104.566 259.709 103.957 260.712 103.541L375.117 56.1527C386.518 51.4305 398.737 49 411.076 49C423.416 49 435.635 51.4305 447.035 56.1527C458.435 60.8749 468.794 67.7963 477.519 76.5218C486.244 85.2473 493.166 95.6059 497.888 107.006C507.424 130.03 507.424 155.899 497.887 178.923C488.35 201.947 470.058 220.239 447.034 229.776Z" fill="#8F83FF"/>
</svg>
